<svg width="10" height="10" viewBox="0 0 10 10" fill="none" xmlns="http://www.w3.org/2000/svg">
<g clip-path="url(#clip0_1_80)">
<path fill-rule="evenodd" clip-rule="evenodd" d="M-0.166666 5C-0.166666 4.72386 0.0571916 4.5 0.333334 4.5H9.66667C9.94281 4.5 10.1667 4.72386 10.1667 5C10.1667 5.27614 9.94281 5.5 9.66667 5.5H0.333334C0.0571916 5.5 -0.166666 5.27614 -0.166666 5Z" fill="#3730A3"/>
<path fill-rule="evenodd" clip-rule="evenodd" d="M4.64645 -0.0201794C4.84171 -0.215442 5.15829 -0.215442 5.35355 -0.0201794L10.0202 4.64649C10.2155 4.84175 10.2155 5.15833 10.0202 5.35359L5.35355 10.0203C5.15829 10.2155 4.84171 10.2155 4.64645 10.0203C4.45118 9.825 4.45118 9.50842 4.64645 9.31315L8.95956 5.00004L4.64645 0.686927C4.45118 0.491665 4.45118 0.175083 4.64645 -0.0201794Z" fill="#3730A3"/>
</g>
<defs>
<clipPath id="clip0_1_80">
<rect width="10" height="10" fill="white"/>
</clipPath>
</defs>
</svg>
