<svg width="35" height="35" viewBox="0 0 35 35" fill="none" xmlns="http://www.w3.org/2000/svg">
<path fill-rule="evenodd" clip-rule="evenodd" d="M15.6584 3.99177C17.3071 2.34301 19.5433 1.41675 21.875 1.41675H26.25C27.0784 1.41675 27.75 2.08832 27.75 2.91675V8.75008C27.75 9.57851 27.0784 10.2501 26.25 10.2501H21.9167V13.0834H26.25C26.7119 13.0834 27.148 13.2962 27.4323 13.6603C27.7166 14.0244 27.8172 14.4991 27.7052 14.9472L26.2469 20.7806C26.0799 21.4483 25.48 21.9167 24.7917 21.9167H21.9167V32.0834C21.9167 32.9118 21.2451 33.5834 20.4167 33.5834H14.5833C13.7549 33.5834 13.0833 32.9118 13.0833 32.0834V21.9167H10.2083C9.3799 21.9167 8.70833 21.2452 8.70833 20.4167V14.5834C8.70833 13.755 9.3799 13.0834 10.2083 13.0834H13.0833V10.2084C13.0833 7.87672 14.0096 5.64052 15.6584 3.99177ZM21.875 4.41675C20.339 4.41675 18.8658 5.02694 17.7797 6.11309C16.6935 7.19924 16.0833 8.67237 16.0833 10.2084V14.5834C16.0833 15.4118 15.4118 16.0834 14.5833 16.0834H11.7083V18.9167H14.5833C15.4118 18.9167 16.0833 19.5883 16.0833 20.4167V30.5834H18.9167V20.4167C18.9167 19.5883 19.5882 18.9167 20.4167 18.9167H23.6205L24.3288 16.0834H20.4167C19.5882 16.0834 18.9167 15.4118 18.9167 14.5834V10.2084C18.9167 9.42381 19.2283 8.67135 19.7831 8.11656C20.3379 7.56176 21.0904 7.25008 21.875 7.25008H24.75V4.41675H21.875Z" fill="#6B7280"/>
</svg>
